<svg width="22" height="23" viewBox="0 0 22 23" fill="none" xmlns="http://www.w3.org/2000/svg">
<path d="M17.1532 18.9348C17.407 18.9587 17.6638 18.9709 17.9231 18.9709C18.9983 18.9709 20.0306 18.7613 20.9902 18.3759C20.9967 18.2828 21 18.1887 21 18.0937C21 16.1558 19.6224 14.5849 17.9231 14.5849C17.2793 14.5849 16.6818 14.8103 16.1878 15.1957M17.1532 18.9348C17.1532 18.9468 17.1532 18.9589 17.1532 18.9709C17.1532 19.2341 17.1405 19.4938 17.1158 19.7495C15.314 20.9284 13.2257 21.6025 10.9993 21.6025C8.77298 21.6025 6.6847 20.9284 4.88288 19.7495C4.85814 19.4938 4.84543 19.2341 4.84543 18.9709C4.84543 18.9589 4.84546 18.9469 4.84551 18.9349M17.1532 18.9348C17.1471 17.5587 16.7937 16.2763 16.1878 15.1957M16.1878 15.1957C15.0946 13.2459 13.1793 11.9533 10.9993 11.9533C8.81961 11.9533 6.90458 13.2456 5.81128 15.195M5.81128 15.195C5.31747 14.81 4.72026 14.5849 4.07695 14.5849C2.3776 14.5849 1 16.1558 1 18.0937C1 18.1887 1.00331 18.2828 1.00981 18.3759C1.96944 18.7613 3.00172 18.9709 4.07695 18.9709C4.33576 18.9709 4.59209 18.9588 4.84551 18.9349M5.81128 15.195C5.20514 16.2757 4.85157 17.5585 4.84551 18.9349M14.0763 4.93559C14.0763 6.87346 12.6987 8.44442 10.9993 8.44442C9.29998 8.44442 7.92238 6.87346 7.92238 4.93559C7.92238 2.99772 9.29998 1.42676 10.9993 1.42676C12.6987 1.42676 14.0763 2.99772 14.0763 4.93559ZM20.2302 8.44442C20.2302 9.89783 19.197 11.076 17.9225 11.076C16.648 11.076 15.6148 9.89783 15.6148 8.44442C15.6148 6.99102 16.648 5.8128 17.9225 5.8128C19.197 5.8128 20.2302 6.99102 20.2302 8.44442ZM6.38391 8.44442C6.38391 9.89783 5.35071 11.076 4.0762 11.076C2.80168 11.076 1.76849 9.89783 1.76849 8.44442C1.76849 6.99102 2.80168 5.8128 4.0762 5.8128C5.35071 5.8128 6.38391 6.99102 6.38391 8.44442Z" stroke="#A2A9B4" stroke-width="1.5" stroke-linecap="round" stroke-linejoin="round"/>
</svg>
