<svg width="22" height="22" viewBox="0 0 22 22" fill="none" xmlns="http://www.w3.org/2000/svg">
<path d="M3.55626 8.71561C3.29427 11.1306 3.13513 13.5845 3.0843 16.0708C5.86917 17.4719 8.51791 19.1875 11 21.1807C13.482 19.1875 16.1307 17.4719 18.9156 16.0708C18.8648 13.5845 18.7056 11.1306 18.4436 8.71565M3.55626 8.71561C2.71415 8.37452 1.86184 8.06023 1 7.77357C4.12087 5.13751 7.46827 2.86433 11 1.00488C14.5317 2.86434 17.8791 5.13752 21 7.77358C20.1381 8.06025 19.2858 8.37455 18.4436 8.71565M3.55626 8.71561C6.1404 9.76229 8.62837 11.0613 11 12.5883C13.3716 11.0613 15.8595 9.76233 18.4436 8.71565M5.95138 14.3396C6.3497 14.3396 6.6726 13.9505 6.6726 13.4705C6.6726 12.9906 6.3497 12.6015 5.95138 12.6015C5.55306 12.6015 5.23015 12.9906 5.23015 13.4705C5.23015 13.9505 5.55306 14.3396 5.95138 14.3396ZM5.95138 14.3396V10.0805C7.57796 8.86259 9.26289 7.7472 11 6.74177M4.26144 20.1251C5.38806 18.7675 5.95138 16.9881 5.95138 15.2087V13.4705" stroke="#A2A9B4" stroke-width="1.5" stroke-linecap="round" stroke-linejoin="round"/>
</svg>
