<svg width="22" height="23" viewBox="0 0 22 23" fill="none" xmlns="http://www.w3.org/2000/svg">
<path d="M2.15385 21.7021H19.8462M2.15385 21.7021C1.51659 21.7021 1 21.0247 1 20.189M2.15385 21.7021H9.84615C10.4834 21.7021 11 21.0247 11 20.189M1 20.189V3.03955M1 20.189V18.1714C1 17.3357 1.51659 16.6582 2.15385 16.6582M21 20.189V3.03955M21 20.189C21 21.0247 20.4834 21.7021 19.8462 21.7021M21 20.189V18.1714C21 17.3357 20.4834 16.6582 19.8462 16.6582M19.8462 21.7021H12.1538C11.5166 21.7021 11 21.0247 11 20.189M21 3.03955C21 2.20384 20.4834 1.52637 19.8462 1.52637H2.15385C1.51659 1.52637 1 2.20384 1 3.03955M21 3.03955V5.05713C21 5.89284 20.4834 6.57031 19.8462 6.57031M1 3.03955V5.05713C1 5.89284 1.51659 6.57031 2.15385 6.57031M2.15385 6.57031H19.8462M2.15385 6.57031H9.84615C10.4834 6.57031 11 7.24779 11 8.0835M2.15385 6.57031C1.51659 6.57031 1 7.24779 1 8.0835V10.1011C1 10.9368 1.51659 11.6143 2.15385 11.6143M19.8462 6.57031H12.1538C11.5166 6.57031 11 7.24779 11 8.0835M19.8462 6.57031C20.4834 6.57031 21 7.24779 21 8.0835V10.1011C21 10.9368 20.4834 11.6143 19.8462 11.6143M2.15385 11.6143H9.84615M2.15385 11.6143C1.51659 11.6143 1 12.2917 1 13.1274V15.145C1 15.9807 1.51659 16.6582 2.15385 16.6582M11 10.1011V8.0835M11 10.1011C11 10.9368 10.4834 11.6143 9.84615 11.6143M11 10.1011C11 10.9368 11.5166 11.6143 12.1538 11.6143M9.84615 11.6143C10.4834 11.6143 11 12.2917 11 13.1274M12.1538 11.6143H19.8462M12.1538 11.6143C11.5166 11.6143 11 12.2917 11 13.1274M19.8462 11.6143C20.4834 11.6143 21 12.2917 21 13.1274V15.145C21 15.9807 20.4834 16.6582 19.8462 16.6582M2.15385 16.6582H9.84615M11 15.145V13.1274M11 15.145C11 15.9807 10.4834 16.6582 9.84615 16.6582M11 15.145C11 15.9807 11.5166 16.6582 12.1538 16.6582M9.84615 16.6582C10.4834 16.6582 11 17.3357 11 18.1714M11 20.189V18.1714M11 18.1714C11 17.3357 11.5166 16.6582 12.1538 16.6582M12.1538 16.6582H19.8462" stroke="#A2A9B4" stroke-width="1.5" stroke-linecap="round" stroke-linejoin="round"/>
</svg>
