<svg width="22" height="23" viewBox="0 0 22 23" fill="none" xmlns="http://www.w3.org/2000/svg">
<path d="M2.15385 21.2803H19.8462M2.15385 21.2803C1.51659 21.2803 1 20.6028 1 19.7671M2.15385 21.2803H3.69231C4.32956 21.2803 4.84615 20.6028 4.84615 19.7671M1 19.7671V2.61768M1 19.7671V17.7495C1 16.9138 1.51659 16.2363 2.15385 16.2363M21 19.7671V2.61768M21 19.7671C21 20.6028 20.4834 21.2803 19.8462 21.2803M21 19.7671V17.7495C21 16.9138 20.4834 16.2363 19.8462 16.2363M19.8462 21.2803H18.3077C17.6704 21.2803 17.1538 20.6028 17.1538 19.7671M19.8462 1.10449H2.15385M19.8462 1.10449C20.4834 1.10449 21 1.78197 21 2.61768M19.8462 1.10449H18.3077C17.6704 1.10449 17.1538 1.78197 17.1538 2.61768M21 2.61768V4.63525C21 5.47096 20.4834 6.14844 19.8462 6.14844M2.15385 1.10449C1.51659 1.10449 1 1.78197 1 2.61768M2.15385 1.10449H3.69231C4.32956 1.10449 4.84615 1.78197 4.84615 2.61768M1 2.61768V4.63525C1 5.47096 1.51659 6.14844 2.15385 6.14844M2.15385 6.14844H3.69231M2.15385 6.14844C1.51659 6.14844 1 6.82591 1 7.66162V9.6792C1 10.5149 1.51659 11.1924 2.15385 11.1924M3.69231 6.14844C4.32956 6.14844 4.84615 5.47096 4.84615 4.63525V2.61768M3.69231 6.14844C4.32956 6.14844 4.84615 6.82591 4.84615 7.66162V9.6792M4.84615 2.61768V9.6792M4.84615 2.61768C4.84615 1.78197 5.36275 1.10449 6 1.10449H16C16.6373 1.10449 17.1538 1.78197 17.1538 2.61768M18.3077 6.14844H19.8462M18.3077 6.14844C17.6704 6.14844 17.1538 5.47096 17.1538 4.63525V2.61768M18.3077 6.14844C17.6704 6.14844 17.1538 6.82591 17.1538 7.66162V9.6792M19.8462 6.14844C20.4834 6.14844 21 6.82591 21 7.66162V9.6792C21 10.5149 20.4834 11.1924 19.8462 11.1924M17.1538 2.61768V9.6792M6 11.1924H16M6 11.1924C5.36275 11.1924 4.84615 10.5149 4.84615 9.6792M6 11.1924C5.36275 11.1924 4.84615 11.8699 4.84615 12.7056M4.84615 9.6792C4.84615 10.5149 4.32956 11.1924 3.69231 11.1924M17.1538 9.6792C17.1538 10.5149 16.6373 11.1924 16 11.1924M17.1538 9.6792C17.1538 10.5149 17.6704 11.1924 18.3077 11.1924M16 11.1924C16.6373 11.1924 17.1538 11.8699 17.1538 12.7056M4.84615 19.7671V12.7056M4.84615 19.7671C4.84615 20.6028 5.36275 21.2803 6 21.2803H16C16.6373 21.2803 17.1538 20.6028 17.1538 19.7671M4.84615 19.7671V17.7495C4.84615 16.9138 4.32956 16.2363 3.69231 16.2363M17.1538 19.7671V12.7056M17.1538 19.7671V17.7495C17.1538 16.9138 17.6704 16.2363 18.3077 16.2363M17.1538 12.7056V14.7231C17.1538 15.5589 17.6704 16.2363 18.3077 16.2363M17.1538 12.7056C17.1538 11.8699 17.6704 11.1924 18.3077 11.1924M4.84615 12.7056V14.7231C4.84615 15.5589 4.32956 16.2363 3.69231 16.2363M4.84615 12.7056C4.84615 11.8699 4.32956 11.1924 3.69231 11.1924M2.15385 11.1924H3.69231M2.15385 11.1924C1.51659 11.1924 1 11.8699 1 12.7056V14.7231C1 15.5589 1.51659 16.2363 2.15385 16.2363M18.3077 11.1924H19.8462M19.8462 11.1924C20.4834 11.1924 21 11.8699 21 12.7056V14.7231C21 15.5589 20.4834 16.2363 19.8462 16.2363M2.15385 16.2363H3.69231M18.3077 16.2363H19.8462" stroke="#A2A9B4" stroke-width="1.5" stroke-linecap="round" stroke-linejoin="round"/>
</svg>
