<svg width="22" height="23" viewBox="0 0 22 23" fill="none" xmlns="http://www.w3.org/2000/svg">
<path d="M1.05178 12.1397C0.982806 11.8609 0.98274 11.5591 1.05159 11.2802C2.4377 5.6664 6.36838 1.61816 11.0009 1.61816C15.6312 1.61816 19.5604 5.66263 20.9482 11.2724C21.0172 11.5512 21.0173 11.853 20.9484 12.1319C19.5623 17.7457 15.6316 21.7939 10.9991 21.7939C6.36878 21.7939 2.43961 17.7495 1.05178 12.1397Z" stroke="#A2A9B4" stroke-width="1.5" stroke-linecap="round" stroke-linejoin="round"/>
<path d="M13.9952 11.7061C13.9952 13.9346 12.6542 15.7412 11.0001 15.7412C9.3459 15.7412 8.00493 13.9346 8.00493 11.7061C8.00493 9.4775 9.3459 7.6709 11.0001 7.6709C12.6542 7.6709 13.9952 9.4775 13.9952 11.7061Z" stroke="#A2A9B4" stroke-width="1.5" stroke-linecap="round" stroke-linejoin="round"/>
</svg>
