<svg width="26" height="26" viewBox="0 0 26 26" fill="none" xmlns="http://www.w3.org/2000/svg">
<path d="M2.46447 23.6936C4.41709 25.6633 7.58291 25.6633 9.53553 23.6936L18.0711 15.083M6 25.1709C3.23858 25.1709 1 22.9126 1 20.127V2.47314C1 1.63744 1.67157 0.959961 2.5 0.959961H9.5C10.3284 0.959961 11 1.63744 11 2.47314V7.94979M6 25.1709C8.76142 25.1709 11 22.9126 11 20.127V7.94979M6 25.1709H23.5C24.3284 25.1709 25 24.4934 25 23.6577V16.5962C25 15.7605 24.3284 15.083 23.5 15.083H18.0711M11 7.94979L14.8388 4.07722C15.4246 3.48628 16.3744 3.48628 16.9602 4.07722L21.9099 9.07047C22.4957 9.6614 22.4957 10.6195 21.9099 11.2104L18.0711 15.083M6 20.127H6.01V20.137H6V20.127Z" stroke="#A2A9B4" stroke-width="1.5" stroke-linecap="round" stroke-linejoin="round"/>
</svg>
