<svg width="22" height="23" viewBox="0 0 22 23" fill="none" xmlns="http://www.w3.org/2000/svg">
<path d="M15.7858 3.66749L17.5858 1.85168C18.3668 1.06376 19.6332 1.06376 20.4142 1.85168C21.1953 2.63959 21.1953 3.91705 20.4142 4.70497L9.08766 16.1311C8.52374 16.6999 7.8282 17.1181 7.06388 17.3478L4.2 18.2084L5.0531 15.3194C5.28077 14.5483 5.6953 13.8467 6.25922 13.2778L15.7858 3.66749ZM15.7858 3.66749L18.6 6.50644M17 13.9042V19.0154C17 20.3526 15.9255 21.4365 14.6 21.4365H3.4C2.07452 21.4365 1 20.3526 1 19.0154V7.71699C1 6.37985 2.07452 5.29589 3.4 5.29589H8.46667" stroke="#A2A9B4" stroke-width="1.5" stroke-linecap="round" stroke-linejoin="round"/>
</svg>
