<svg width="26" height="27" viewBox="0 0 26 27" fill="none" xmlns="http://www.w3.org/2000/svg">
<path d="M13 7.08452H15M13 11.4865H15M5 15.8885H15M5 20.2905H15M19 7.08452H23.5C24.3284 7.08452 25 7.82358 25 8.73526V22.4915C25 24.3148 23.6569 25.793 22 25.793M19 7.08452V22.4915C19 24.3148 20.3431 25.793 22 25.793M19 7.08452V3.23278C19 2.3211 18.3284 1.58203 17.5 1.58203H2.5C1.67157 1.58203 1 2.3211 1 3.23278V22.4915C1 24.3148 2.34315 25.793 4 25.793H22M5 7.08452H9V11.4865H5V7.08452Z" stroke="#6AAAFA" stroke-width="1.5" stroke-linecap="round" stroke-linejoin="round"/>
</svg>
