<svg width="22" height="23" viewBox="0 0 22 23" fill="none" xmlns="http://www.w3.org/2000/svg">
<path d="M15.8876 3.37726C15.5322 2.39934 14.3739 1.68262 13 1.68262H9C7.62605 1.68262 6.46783 2.39934 6.11235 3.37726M15.8876 3.37726C15.9608 3.57863 16 3.79106 16 4.01059V4.01059C16 4.43916 15.6526 4.78658 15.224 4.78658H6.77599C6.34742 4.78658 6 4.43916 6 4.01059V4.01059C6 3.79106 6.03916 3.57863 6.11235 3.37726M15.8876 3.37726C16.7492 3.42775 17.606 3.49148 18.4578 3.56818C19.9252 3.70034 21 4.68208 21 5.82847V19.5304C21 20.8161 19.6569 21.8584 18 21.8584H4C2.34315 21.8584 1 20.8161 1 19.5304V5.82847C1 4.68208 2.07477 3.70034 3.54224 3.56818C4.39396 3.49148 5.25077 3.42775 6.11235 3.37726" stroke="#A2A9B4" stroke-width="1.5" stroke-linecap="round" stroke-linejoin="round"/>
</svg>
