<svg width="26" height="26" viewBox="0 0 26 26" fill="none" xmlns="http://www.w3.org/2000/svg">
<path d="M5 5.42872V4.14036C5 2.317 6.34315 0.838867 8 0.838867H18C19.6569 0.838867 21 2.317 21 4.14036V5.42872M5 5.42872C5.31278 5.30706 5.64936 5.24086 6 5.24086H20C20.3506 5.24086 20.6872 5.30706 21 5.42872M5 5.42872C3.83481 5.88194 3 7.10486 3 8.54235V9.83071M21 5.42872C22.1652 5.88194 23 7.10486 23 8.54235V9.83071M23 9.83071C22.6872 9.70904 22.3506 9.64284 22 9.64284H4C3.64936 9.64284 3.31278 9.70904 3 9.83071M23 9.83071C24.1652 10.2839 25 11.5068 25 12.9443V21.7483C25 23.5717 23.6569 25.0498 22 25.0498H4C2.34315 25.0498 1 23.5717 1 21.7483V12.9443C1 11.5068 1.83481 10.2839 3 9.83071" stroke="#A2A9B4" stroke-width="1.5" stroke-linecap="round" stroke-linejoin="round"/>
</svg>
